Patient4_TMGait_0pt5_01_right_29_EMG.mot
version=1
nRows=33
nColumns=33
inDegrees=no
endheader
time	1LAddLong	2LGlutMax	3LGlutMed	4LIliopsoas	5LSemiMemb	6LBicFemLong	7LRecFem	8LVastMed	9LVastLat	10LGasMed	11LTibAnt	12lTibPost	13LPeroneusLong	14LSol	15LExtDigLong	16LFlexDigLong	17RAddLong	18RGlutMax	19RGlutMed	20RIliopsoas	21RSemiMemb	22RBicFemLong	23RRecFem	24RVastMed	25RVastLat	26RGasMed	27RTibAnt	28RTibPost	29RPeroneusLong	30RSol	31RExtDigLong	32RFlexDigLong
38.53	-0.002289	-0.49393	0.015869	0.019226	0.006866	-0.009613	-0.3186	-0.023346	0.11948	-0.012512	-0.11871	-0.00885	-0.087128	-0.24216	0.3244	-0.015564	0.001221	-0.58395	-0.45059	0.008087	-0.079956	-0.59509	0.084229	-0.059967	-0.26764	0.029907	-0.18768	0.000305	0.37094	-0.6369	0.002594	-0.007782
38.531	0.005951	-0.41351	0.020142	0.031586	-0.00473	0.005035	-0.30045	-0.01709	0.10712	-0.027466	0.032196	-0.007477	-0.095978	-0.14984	0.48843	-0.00473	0.006409	-0.4538	-0.45212	-0.005341	-0.085449	-0.44418	0.1033	0.002594	-0.28244	0.037231	0.13519	-0.001831	0.31769	-0.63797	0.001068	-0.007782
38.532	-0.003052	-0.35721	0.010376	0.020905	0.001221	0.003204	-0.31632	-0.013885	0.10513	-0.040283	0.001678	-0.005035	-0.029144	-0.030823	0.11841	-0.010529	0.024719	-0.55267	-0.41107	-0.063324	-0.10468	-0.26489	0.16617	-0.19409	-0.024109	0.013275	-0.25864	-0.000153	0.10956	-0.22964	-0.003204	-0.013123
38.533	0.003967	-0.28458	-0.007782	-0.001068	-0.001221	0.005341	-0.289	-0.012817	0.10742	-0.018616	0.070038	-0.01236	-0.046997	-0.007172	0.10925	-0.014954	0.034332	-0.50888	-0.59052	-0.19836	-0.099792	-0.12253	0.15884	-0.19211	0.19318	0.006409	-0.82657	0	0.20218	0.22476	-0.001221	-0.019379
38.534	0.003967	-0.20172	-0.009613	0.00061	-0.002289	-0.001678	-0.24643	-0.010529	0.088654	0.023651	0.19302	-0.009918	-0.12909	-0.048523	-0.12054	-0.02594	0.004272	-0.64163	-0.38345	-0.18188	-0.028534	-0.040588	-0.10864	-0.069427	0.30014	0.004272	-0.57266	0.001831	0.27664	0.57465	-0.001221	-0.009308
38.535	-0.000916	-0.098877	-0.007324	0.012665	0.010986	0.011597	-0.29617	-0.013123	0.089111	0.040588	0.12466	-0.006866	-0.12711	-0.074005	0.81329	-0.008698	0.009766	-0.80093	-0.50491	-0.037231	-0.050507	-0.028381	-0.069427	-0.019836	0.12741	0.001373	-0.22247	-0.00351	0.20172	0.62225	-0.003052	-0.01297
38.536	0.00824	0.016785	0.008392	0.016785	0.002899	0.016937	-0.28778	-0.014038	0.090179	0.030823	-0.10666	-0.005493	-0.065155	-0.088348	-0.37048	-0.014191	0.004272	-0.97214	-0.63461	0.11673	-0.043335	-0.005798	0.093079	0.233	0.12146	-0.00061	-0.066833	-0.001068	0.11368	0.43564	-0.005646	-0.019226
38.537	0.003662	0.1178	0.019836	0.000305	0.018158	0.003967	-0.27329	-0.016785	0.085754	0.019989	-0.087433	-0.003662	-0.037537	-0.032349	-0.15137	-0.017548	-0.001678	-0.99884	-0.41718	0.1503	0.074768	0.47531	0.22842	0.40268	0.061951	0.007935	-0.22324	-0.001373	0.098877	0.23972	-0.003815	-0.016785
38.538	0.01297	0.22278	-0.018921	-0.007019	0.007172	0.013733	-0.19058	-0.010223	0.077057	0.005493	0.12207	-0.001678	-0.051422	-0.007019	-0.39963	-0.019531	0.013885	-1.0603	-0.81909	0.22934	0.17349	0.746	0.29907	0.58594	-0.30716	0.005035	-0.20401	0.000153	0.06958	0.13473	0.000458	-0.027161
38.539	0.005951	0.30868	-0.03006	-0.002441	0.006866	0.015717	-0.14633	-0.003815	0.07843	0.030823	0.15198	0.00412	-0.10346	-0.012665	-0.000305	-0.029449	0.016174	-1.0712	-1.1537	0.14175	0.14847	0.39642	0.063934	0.47195	-0.4216	0.006256	-0.095673	-0.001831	0.10284	0.034943	-0.003815	-0.02533
38.54	0.015411	0.35919	-0.057373	-0.00473	0.005188	-0.005646	-0.12695	-0.012665	0.072021	0.009308	0.063629	0.00946	-0.086212	0.039825	-0.14893	-0.044861	0.008392	-1.0596	-1.179	0.047913	0.081482	0.021057	0.23697	0.20462	-0.22247	-0.00412	0.10544	-0.001831	0.34836	0.001221	-0.004425	-0.03418
38.541	0.005493	0.45517	-0.076141	-0.003052	0.010834	-0.014801	-0.15717	0.00824	0.065155	-0.006104	-0.070038	0.002594	-0.022583	0.05249	0.35233	-0.013733	0.00412	-1.0234	-1.4961	0.068817	0.059509	-0.023041	0.48553	0.08194	0.002594	-0.010834	0.45334	-0.000916	0.16007	-0.020447	-0.004883	-0.027466
38.542	0.00885	0.49759	-0.066376	0.006866	0.005035	-0.00885	-0.12253	0.000305	0.053558	-0.001526	-0.056915	0.01297	-0.005951	0.065002	0.14786	-0.034485	0.005646	-0.91919	-1.3026	0.02655	-0.069733	0.18494	0.36453	0.002289	0.091248	-0.018921	0.62485	0.00473	-0.4599	-0.032654	-0.001678	-0.023041
38.543	-0.000763	0.56412	-0.065308	0.021057	0.007629	-0.004425	-0.065155	0.002899	0.043488	0.014801	0.046997	0.007782	-0.034943	0.064087	-0.40665	-0.016937	0.030975	-0.60211	-0.53833	0.015717	-0.13351	0.44784	0.025787	-0.11292	0.17532	-0.020142	0.44784	-0.001373	-0.1709	-0.008698	-0.002594	-0.028687
38.544	0.011902	0.60196	-0.087891	0.019073	-0.000305	-0.015259	-0.038147	0.000458	0.040436	0.005646	0.069733	0.007019	-0.012207	0.064697	0.002136	-0.027466	0.038605	-0.39963	-0.36377	0.039825	-0.1683	0.51849	-0.67154	-0.31632	0.30884	-0.003357	0.29129	-0.002594	-0.034485	0.10376	-0.00351	-0.02533
38.545	-0.00061	0.625	-0.08667	0.005341	0.001526	-0.003967	-0.006561	0.002747	0.056305	0.022736	-0.016632	0.004883	-0.052643	0.055237	0.12589	-0.03891	0.030518	-0.23926	-0.060883	-0.00061	-0.090942	0.20935	-0.60211	-0.45837	0.23865	0.001373	0.14587	-0.002289	-0.26443	0.18524	-0.002747	-0.030975
38.546	0.005493	0.75867	-0.10223	-0.007629	0.007629	-0.019073	0.06134	0.007019	0.067139	0.026855	-0.33707	0.002747	-0.040894	0.065002	-0.16251	-0.047302	0.028381	-0.048065	0.6546	-0.056458	0.007935	-0.003052	-0.33447	-0.44327	-0.045166	-0.010529	0.14572	-0.007324	-0.20111	0.12695	-0.00412	-0.028992
38.547	0.013123	0.80521	-0.12695	-0.005493	0.005188	0.000916	0.079651	-0.006104	0.079346	0.016174	-0.13901	0.00412	-0.065002	0.07431	-0.063629	-0.046539	-0.005798	0.068512	0.30853	-0.029297	0.095978	-0.079498	-0.033722	-0.12207	-0.26337	-0.026703	0.20523	-0.001678	-0.13351	0.058289	-0.00473	-0.026855
38.548	0.015259	0.83527	-0.13382	0.002136	0.005188	0.00412	0.11383	-0.001068	0.065002	0.018158	0.036621	0.018616	-0.11169	0.048523	0.22553	-0.033112	-0.01358	0.18265	-0.19821	-0.020599	0.07309	-0.089417	0.10346	-0.001984	-0.28686	-0.026398	0.28412	-0.002136	-0.097351	0.027161	-0.004883	-0.028687
38.549	0.003204	0.85022	-0.12924	0.014648	0.011444	0.032501	0.099792	0.014343	0.050964	0.025787	0.036469	-0.00412	-0.10437	0.088806	0.35355	-0.042267	0.006561	0.26154	-0.53818	-0.03952	0.081787	-0.20844	0.15076	0.18005	-0.31982	-0.03479	0.22217	-0.001984	-0.070343	-0.012665	-0.002136	-0.018768
38.55	0.000916	0.89768	-0.12589	0.01709	0.00946	0.017395	0.028534	0.000305	0.042267	0.015411	-0.049438	0.006104	-0.084991	0.079803	-0.037231	-0.042114	-0.01236	0.45334	-0.40558	-0.01297	0.025177	-0.27969	0.13794	0.24124	-0.16937	-0.002136	0.19867	-0.000458	-0.097961	-0.082397	-0.00061	-0.019226
38.551	-0.005798	0.90988	-0.11292	0.005646	0.007782	0.028381	-0.025177	0.010223	0.040588	0.017853	-0.037689	0.019836	-0.066376	0.073547	-0.017395	-0.054932	-0.049744	0.50674	-0.14542	0.000458	-0.027771	-0.2243	0.16083	0.18829	-0.096741	0.05249	0.15671	-0.000763	-0.18921	-0.0737	-0.000153	-0.01709
38.552	0.004425	0.86365	-0.1384	-0.000916	0.01358	0.029297	-0.051727	0.015717	0.040741	0.021515	-0.05249	0.00412	-0.07843	0.10101	-0.051727	-0.042114	-0.036774	0.42862	-0.11993	0.027924	-0.12054	-0.018158	0.10605	0.04425	-0.05249	0.021362	0.059662	-0.003815	-0.14206	-0.12039	-0.003052	-0.01358
38.553	0.003204	0.92087	-0.17639	0.010986	0.011444	0.023346	-0.10635	0.016022	0.026703	0.01236	-0.057678	0.004425	-0.05661	0.103	-0.092621	-0.046844	-0.040283	0.48508	-0.48401	0.061951	-0.121	0.21698	0.043488	0.057678	0.053101	-0.007782	0.057983	-0.010681	-0.065002	-0.17136	-0.003052	-0.022583
38.554	-0.004272	0.92514	-0.19653	0.011139	0.009308	0.037384	-0.087585	0.018768	0.032043	0.027161	-0.020142	0.005646	-0.10956	0.06958	-0.094757	-0.054169	-0.031586	0.5069	-0.20401	0.039825	-0.15228	0.21011	0.067444	-0.043793	0.065613	-0.013123	0.23682	-0.042114	-0.074463	-0.22034	-0.00061	-0.014801
38.555	-0.016785	0.92133	-0.18601	0.012665	0.002289	0.026398	-0.070496	0.021362	0.021667	0.054779	0.025024	-0.007172	-0.14725	0.059052	0.11337	-0.055389	-0.010986	0.55069	0.11917	0.018158	-0.13245	0.19501	0.16571	0.052643	0.079956	-0.00061	0.50003	-0.050201	-0.14618	0.059052	0.010986	-0.012512
38.556	-0.021973	0.91827	-0.17258	0.00946	0.000305	0.02182	-0.12711	0.018616	0.013275	0.041809	-0.017242	-0.00351	-0.14465	0.11993	0.31769	-0.045013	-0.010376	0.56671	0.084229	-0.017395	-0.11108	0.26276	0.18234	0.024109	0.11658	0.017548	0.90378	0.057373	-0.12528	0.012207	-0.00351	-0.01297
38.557	0.006256	0.92621	-0.19272	0.019684	0.00824	0.014496	-0.11597	0.019379	0.019379	0.024719	-0.030518	-0.014191	-0.072937	0.23834	0.32028	-0.046082	-0.009003	0.54077	-0.052338	-0.041046	-0.017853	0.35095	0.18509	-0.046692	0.048523	0.041046	1.0764	0.052185	-0.065918	-0.14771	-0.002747	-0.017853
38.558	-0.005493	0.89096	-0.21255	0.007629	0.001984	0.021057	-0.034485	0.011902	0.017853	0.00351	-0.026398	0.018158	-0.043182	0.24155	0.16403	-0.045929	-0.04715	0.49316	-0.49362	-0.007629	0.22247	0.34027	0.11658	0.008087	0.024109	-0.008545	0.48294	0.012512	0.016479	-0.11429	-0.003815	-0.016174
38.559	0.00824	0.87982	-0.20874	0.008545	0.007782	0.001221	0	0.023956	0.007019	0.014191	0.15564	0.008087	-0.033112	0.17944	0.079346	-0.046234	-0.02655	0.47607	-0.64514	0.038757	0.23392	0.085297	0.15396	0.12283	-0.1738	-0.012207	-0.13229	0.002136	-0.052948	-0.21286	-0.001678	-0.016022
38.56	0.014801	0.8522	-0.20691	0.005341	0.002136	0.017853	0.067749	0.024261	0.022888	0.008087	0.24674	-0.003357	-0.052032	0.13565	-0.064392	-0.035095	0.014648	0.47638	-0.26306	-0.046692	0.12436	-0.30853	0.20706	0.14908	-0.21393	0.007935	-0.034332	0.00061	-0.12024	-0.36728	-0.00412	-0.016632
38.561	-0.009308	0.81543	-0.23499	0.013275	0.009155	0.010071	0.16815	0.009613	0.013123	0.003052	0.053711	0.000153	-0.054169	0.14175	0.26382	-0.0354	0.037384	0.42557	-0.37003	-0.057831	0.056	-0.40375	0.14496	0.002594	-0.14938	0.035706	-0.88135	-0.000763	-0.028381	-0.35202	-0.001221	-0.005341
38.562	0.002747	0.80307	-0.23438	0.001526	0.007324	0.002441	0.23178	0.018158	0.008392	0.03952	-0.081787	0.001068	-0.10407	0.13062	-0.28641	-0.030823	0.039825	0.41611	-0.19974	-0.040894	0.007019	-0.2507	0.17273	-0.10834	-0.023041	0.02655	-1.2642	-0.011749	0.021515	-0.18662	-0.006409	-0.008392
